<?xml version="1.0" standalone="no"?>
<!DOCTYPE svg PUBLIC "-//W3C//DTD SVG 20010904//EN"
 "http://www.w3.org/TR/2001/REC-SVG-20010904/DTD/svg10.dtd">
<svg version="1.0" xmlns="http://www.w3.org/2000/svg"
 width="1024.000000pt" height="1024.000000pt" viewBox="0 0 1024.000000 1024.000000"
 preserveAspectRatio="xMidYMid meet">
<g transform="translate(0.000000,1024.000000) scale(0.100000,-0.100000)"
fill="#000000" stroke="none">
<path d="M3127 7492 c-9 -10 -17 -28 -17 -40 0 -11 -4 -24 -10 -27 -5 -3 -10
-42 -10 -86 0 -76 -1 -81 -30 -108 -55 -49 -49 -171 8 -179 19 -3 22 -10 22
-47 0 -26 -5 -47 -13 -52 -27 -16 -47 -76 -47 -141 0 -58 3 -66 30 -92 27 -26
30 -34 30 -94 0 -37 4 -66 10 -66 6 0 10 -7 10 -15 0 -8 -4 -15 -10 -15 -5 0
-10 -6 -10 -13 0 -7 -9 -23 -21 -35 -26 -28 -19 -66 19 -107 l27 -30 0 -1074
c0 -851 -3 -1075 -12 -1079 -8 -2 -13 -20 -13 -42 0 -28 -5 -40 -18 -44 -22
-7 -52 -76 -52 -119 0 -55 20 -106 47 -124 24 -16 25 -20 20 -87 -2 -39 -10
-72 -16 -74 -20 -7 -41 -59 -41 -101 0 -50 17 -88 41 -94 13 -3 19 -14 19 -31
0 -14 4 -26 8 -26 5 0 12 -66 16 -146 5 -103 11 -153 21 -168 8 -11 15 -38 15
-59 0 -21 7 -45 15 -53 9 -9 15 -34 15 -62 0 -26 6 -58 13 -73 8 -14 17 -49
20 -78 3 -29 10 -58 15 -65 5 -6 12 -40 16 -75 3 -36 10 -67 15 -70 5 -4 12
-22 16 -41 12 -66 32 -80 110 -82 56 -1 74 -6 88 -21 9 -11 17 -26 17 -34 0
-20 37 -53 60 -53 38 0 64 39 68 102 3 41 9 58 18 58 10 0 14 13 14 45 0 33 4
45 15 45 11 0 15 12 15 50 0 38 4 50 15 50 10 0 15 10 15 30 0 20 5 30 15 30
10 0 15 11 15 35 0 28 4 35 20 35 11 0 20 7 20 15 0 12 13 15 60 15 47 0 60
-3 60 -15 0 -13 74 -15 610 -15 536 0 610 2 610 15 0 13 24 15 160 15 136 0
160 2 160 15 0 12 19 15 110 15 103 0 110 1 110 20 0 19 7 20 180 20 173 0
180 -1 180 -20 0 -18 7 -20 60 -20 47 0 60 -3 60 -15 0 -12 19 -15 115 -15 96
0 115 3 115 15 0 8 7 15 15 15 8 0 15 9 15 20 0 18 7 20 65 20 37 0 65 4 65
10 0 6 7 10 15 10 8 0 15 5 15 11 0 8 23 10 80 5 75 -7 80 -6 80 12 0 17 7 20
61 20 34 0 64 4 68 9 3 6 16 13 28 17 13 4 52 36 87 72 58 58 67 73 91 149 29
93 32 136 16 240 -5 39 -10 129 -11 200 0 72 -7 189 -15 260 -11 97 -15 256
-15 627 0 388 -3 497 -12 501 -17 5 -19 844 -2 855 18 12 36 306 41 680 5 321
4 352 -11 352 -10 0 -16 9 -16 25 0 14 -9 34 -20 45 -11 11 -20 29 -20 39 0
10 -7 21 -15 25 -8 3 -15 12 -15 20 0 7 -7 16 -15 20 -8 3 -15 12 -15 21 0 8
-7 15 -15 15 -8 0 -15 5 -15 11 0 5 -13 15 -30 20 -16 6 -30 14 -30 19 0 4
-18 10 -40 14 -23 4 -38 11 -35 16 3 6 -3 10 -15 10 -21 0 -79 35 -93 58 -4 6
-16 12 -27 12 -10 0 -31 7 -47 15 -15 8 -49 17 -76 20 -26 4 -45 10 -42 16 4
5 -533 9 -1409 9 -1402 0 -1416 0 -1416 20 0 13 -5 17 -14 14 -9 -3 -17 3 -21
15 -3 12 -11 21 -16 21 -6 0 -17 6 -25 14 -11 12 -56 15 -217 16 -186 1 -205
-1 -220 -18z m125 -94 l1 -33 4 33 c3 24 9 32 24 32 18 0 19 -8 19 -115 l0
-115 -45 0 -45 0 2 58 1 57 7 -55 c6 -54 6 -53 10 32 3 47 2 84 -2 81 -5 -2
-8 3 -8 11 0 9 6 16 13 17 10 0 10 2 0 6 -18 7 -16 23 2 23 10 0 16 -11 17
-32z m3315 -96 c66 -35 110 -79 140 -140 l28 -57 0 -1775 0 -1775 -22 -40
c-12 -23 -42 -60 -66 -82 -85 -78 27 -73 -1614 -73 l-1463 0 0 100 0 100 107
0 c85 0 110 3 125 17 22 20 23 41 1 65 -14 15 -32 18 -125 18 l-108 0 0 125 0
125 58 0 c49 0 62 -4 81 -24 47 -50 114 -41 152 21 28 45 20 92 -24 129 -29
24 -37 26 -92 21 -34 -3 -87 -3 -118 0 l-57 6 0 1178 0 1179 110 0 c61 0 110
2 110 4 0 29 -16 36 -85 36 -40 0 -87 3 -104 6 l-31 7 0 138 0 139 61 0 c46 0
67 -5 86 -20 55 -43 146 -13 158 53 13 69 -33 127 -101 127 -24 0 -46 -4 -49
-10 -3 -5 -40 -10 -81 -10 l-74 0 0 104 0 103 68 6 c37 4 88 7 115 7 41 0 49
3 59 25 9 21 8 28 -8 46 -16 18 -26 20 -68 15 -27 -3 -75 -3 -107 1 l-59 6 0
64 0 63 1478 -2 1477 -3 42 -23z m204 -219 c11 -49 13 -340 12 -1804 -2 -1939
5 -1770 -70 -1871 -24 -34 -52 -58 -82 -72 -46 -21 -46 -21 -1401 -23 -745 -2
-1425 1 -1510 6 -152 8 235 11 2155 15 l660 1 50 23 c63 29 109 73 143 137
l27 50 3 1769 c1 1073 -1 1782 -7 1802 -5 19 -6 32 -2 30 4 -3 14 -31 22 -63z
m36 -5 l26 -53 1 -245 c1 -135 -3 -375 -9 -535 l-10 -290 -5 550 c-4 489 -7
554 -22 588 -25 55 -12 45 19 -15z m-3513 16 c10 -25 7 -192 -3 -198 -17 -11
-41 6 -41 28 0 17 -2 18 -10 6 -7 -11 -10 4 -12 50 -1 42 -3 52 -5 28 -3 -24
-9 -38 -18 -38 -10 0 -13 15 -12 59 2 42 5 57 15 54 6 -3 12 -13 13 -22 0 -12
2 -12 6 -2 8 20 36 49 49 50 7 1 15 -6 18 -15z m4 -487 l3 -137 -26 0 c-21 0
-25 5 -26 33 -1 30 -1 31 -9 7 -7 -22 -8 -21 -9 13 -1 20 4 37 9 37 14 0 12
46 -4 105 l-14 50 -3 -65 c-1 -36 -2 -77 -1 -92 1 -16 -2 -28 -7 -28 -16 0
-18 190 -3 203 10 8 16 7 21 -2 7 -10 11 -10 22 3 8 8 21 14 29 13 12 -2 15
-27 18 -140z m3552 -1287 c-4 -859 -7 -1121 -9 -735 -4 932 -2 1495 5 1798 4
152 8 276 8 275 1 -2 -1 -604 -4 -1338z m-3550 -85 l0 -1175 -27 0 -28 0 1
267 c0 150 -2 235 -6 193 -4 -41 -6 281 -6 715 1 435 4 752 7 705 3 -48 6 37
7 193 l2 277 25 0 25 0 0 -1175z m3521 -880 l4 -820 -52 -98 c-29 -53 -54
-100 -55 -105 -2 -4 -6 -6 -10 -4 -5 1 -8 -2 -8 -8 0 -5 -7 -6 -17 -3 -12 5
-14 3 -8 -7 5 -8 4 -11 -3 -6 -5 3 -12 2 -14 -4 -6 -20 -155 -25 -528 -20
-231 4 -312 7 -210 9 91 2 275 2 410 1 280 -1 307 4 377 72 23 22 54 68 70
102 l28 61 -4 495 c-3 431 6 1167 14 1158 2 -2 5 -372 6 -823z m-2111 -1066
c-206 -3 -548 -6 -760 -5 l-385 1 360 5 c198 3 540 6 760 6 l400 0 -375 -7z"/>
<path d="M5115 6718 c-44 -110 -275 -749 -275 -763 0 -5 -28 -28 -61 -50 -129
-85 -245 -252 -280 -405 -16 -73 -13 -230 6 -305 37 -144 141 -291 270 -381
56 -39 57 -40 95 -149 65 -186 246 -680 259 -703 13 -25 33 -28 50 -8 6 8 38
76 71 152 33 76 68 146 78 154 10 8 54 102 97 208 75 184 81 196 128 235 121
102 155 134 196 186 39 50 96 157 107 200 2 9 9 36 15 61 17 68 14 238 -6 306
-50 171 -178 352 -312 442 -43 28 -54 41 -59 71 -4 20 -24 77 -44 126 -41 101
-89 225 -116 300 -9 28 -25 59 -34 70 -10 11 -36 72 -60 135 -23 63 -48 125
-56 138 -23 36 -49 28 -69 -20z m63 -60 c12 -35 42 -146 67 -248 57 -223 64
-345 23 -372 -7 -4 -38 -8 -68 -8 -31 0 -94 -5 -140 -11 -47 -7 -93 -12 -102
-13 -9 0 -15 -3 -13 -6 2 -3 -15 -13 -37 -22 -38 -16 -39 -16 -33 0 4 9 52
139 106 287 122 331 170 455 174 455 2 0 12 -28 23 -62z m133 -684 c44 -10 67
-20 63 -26 -5 -7 -2 -8 5 -4 30 19 182 -75 263 -162 57 -62 114 -161 144 -252
27 -83 23 -350 -6 -350 -5 0 -4 13 1 29 6 17 9 40 7 53 -2 15 -9 0 -21 -44 -9
-37 -14 -74 -11 -83 4 -9 3 -15 -2 -14 -21 4 -26 -2 -14 -16 10 -12 10 -15 -1
-15 -16 0 -41 -48 -27 -52 11 -4 -31 -57 -101 -126 -87 -85 -262 -160 -386
-164 l-50 -1 60 -7 c51 -6 43 -7 -54 -8 -89 -2 -132 3 -192 19 -85 23 -226 98
-221 118 1 7 -2 9 -9 5 -29 -17 -202 216 -183 248 4 6 3 8 -3 5 -6 -4 -18 18
-29 51 -15 44 -19 86 -19 187 1 115 4 138 27 197 77 203 242 356 438 407 93
25 226 27 321 5z m-386 -1314 c15 -38 30 -70 31 -70 2 0 1 14 -2 30 -5 24 -3
30 10 30 45 0 106 -58 131 -124 11 -29 13 -32 9 -11 l-6 30 21 -24 c19 -22 30
-44 15 -28 -7 7 -34 -17 -34 -31 0 -5 6 -15 14 -21 7 -6 11 -22 8 -36 -2 -14
0 -25 4 -25 5 0 10 -10 11 -22 1 -13 3 -41 6 -63 2 -22 5 -67 6 -100 1 -43 4
-56 11 -45 12 18 12 -52 1 -120 -7 -44 -8 -44 -19 -19 -6 15 -24 64 -40 110
-17 46 -69 190 -117 319 -125 338 -117 314 -102 301 8 -6 26 -42 42 -81z"/>
<path d="M5136 5958 c5 -8 -6 -9 -41 -5 -27 4 -45 4 -42 0 4 -3 -24 -16 -61
-28 -104 -33 -170 -73 -247 -150 -116 -116 -175 -255 -175 -415 0 -156 51
-288 156 -400 34 -36 59 -70 57 -77 -3 -7 3 -10 15 -6 13 3 25 -3 36 -19 9
-12 20 -22 24 -21 18 5 120 -40 116 -51 -3 -7 2 -13 10 -13 8 0 12 5 9 10 -4
6 0 8 10 4 46 -17 178 -27 244 -17 144 20 248 73 353 179 118 119 170 246 170
412 0 132 -32 228 -119 349 -25 36 -44 72 -43 80 2 11 1 12 -6 3 -6 -10 -13
-9 -30 3 -19 13 -21 18 -10 32 10 14 10 15 -1 5 -15 -13 -44 -6 -35 8 3 5 2 8
-3 7 -4 -1 -36 12 -70 30 -34 17 -101 43 -148 57 -48 14 -91 28 -97 31 -7 5
-8 2 -3 -7 6 -11 5 -12 -6 -1 -17 16 -73 17 -63 0z m202 -223 c74 -22 166 -80
196 -123 60 -87 71 -128 71 -257 0 -116 -1 -123 -34 -188 -67 -137 -214 -242
-356 -254 -172 -14 -343 73 -428 218 -15 25 -28 58 -29 72 -1 15 -6 27 -10 27
-4 0 -8 8 -8 18 0 12 3 13 8 5 4 -7 6 17 4 53 -8 127 48 252 158 351 55 49 92
69 167 88 68 17 184 12 261 -10z"/>
<path d="M5054 5586 c-195 -91 -203 -367 -14 -470 150 -81 344 5 381 169 48
213 -170 393 -367 301z"/>
</g>
</svg>
